<?xml version="1.0" standalone="no"?><!DOCTYPE svg PUBLIC "-//W3C//DTD SVG 1.1//EN" "http://www.w3.org/Graphics/SVG/1.1/DTD/svg11.dtd"><svg t="1722154476939" class="icon" viewBox="0 0 1024 1024" version="1.1" xmlns="http://www.w3.org/2000/svg" p-id="5222" width="64" height="64" xmlns:xlink="http://www.w3.org/1999/xlink"><path d="M174.7968 385.8432l144.8448 144.7936a51.2 51.2 0 0 1-72.448 72.3968L66.2016 422.0416a51.0464 51.0464 0 0 1 0-72.448l180.992-180.992a51.2 51.2 0 0 1 72.448 72.3968L174.7968 385.8432z m650.5984 256l-144.7936-144.8448a51.2 51.2 0 1 1 72.3968-72.3968l181.0432 180.992a51.0464 51.0464 0 0 1 0 72.448l-181.0432 180.992a51.2 51.2 0 0 1-72.3968-72.3968l144.7936-144.7936z m-266.9568-500.0704a51.2 51.2 0 1 1 96.768 33.3824L408.576 891.136a51.2 51.2 0 0 1-96.8192-33.3312l246.6816-716.032z" fill="#d7dae0" p-id="5223"></path></svg>